<svg xmlns="http://www.w3.org/2000/svg" xmlns:xlink="http://www.w3.org/1999/xlink" width="1080" zoomAndPan="magnify" viewBox="0 0 810 809.999993" height="1080" preserveAspectRatio="xMidYMid meet" version="1.0"><defs><clipPath id="14d79f5a05"><path d="M 2 196 L 809 196 L 809 614.371094 L 2 614.371094 Z M 2 196 " clip-rule="nonzero"/></clipPath><clipPath id="8a8affb7f2"><path d="M 2.101562 405.421875 C 2.101562 521 182.582031 614.699219 405.199219 614.699219 C 627.816406 614.699219 808.296875 521 808.296875 405.421875 C 808.296875 289.84375 627.816406 196.148438 405.199219 196.148438 C 182.582031 196.148438 2.101562 289.847656 2.101562 405.421875 " clip-rule="nonzero"/></clipPath><clipPath id="661a41122d"><path d="M 2.101562 405.421875 C 2.101562 521 182.582031 614.699219 405.199219 614.699219 C 627.816406 614.699219 808.296875 521 808.296875 405.421875 C 808.296875 289.84375 627.816406 196.148438 405.199219 196.148438 C 182.582031 196.148438 2.101562 289.847656 2.101562 405.421875 " clip-rule="nonzero"/></clipPath><radialGradient gradientTransform="matrix(1.006576, 0, 0, 0.993424, 244.122541, 269.719068)" gradientUnits="userSpaceOnUse" r="525.870325" cx="0" id="6fc02d5122" cy="0" fx="0" fy="0"><stop stop-opacity="1" stop-color="rgb(68.199158%, 69.799805%, 83.499146%)" offset="0"/><stop stop-opacity="1" stop-color="rgb(68.199158%, 69.799805%, 83.499146%)" offset="0.25"/><stop stop-opacity="1" stop-color="rgb(68.164062%, 69.764709%, 83.473206%)" offset="0.296875"/><stop stop-opacity="1" stop-color="rgb(67.956543%, 69.555664%, 83.317566%)" offset="0.300781"/><stop stop-opacity="1" stop-color="rgb(67.608643%, 69.20929%, 83.059692%)" offset="0.304688"/><stop stop-opacity="1" stop-color="rgb(67.260742%, 68.861389%, 82.800293%)" offset="0.308594"/><stop stop-opacity="1" stop-color="rgb(66.914368%, 68.513489%, 82.542419%)" offset="0.3125"/><stop stop-opacity="1" stop-color="rgb(66.566467%, 68.167114%, 82.28302%)" offset="0.316406"/><stop stop-opacity="1" stop-color="rgb(66.220093%, 67.819214%, 82.025146%)" offset="0.320312"/><stop stop-opacity="1" stop-color="rgb(65.872192%, 67.472839%, 81.765747%)" offset="0.324219"/><stop stop-opacity="1" stop-color="rgb(65.525818%, 67.124939%, 81.506348%)" offset="0.328125"/><stop stop-opacity="1" stop-color="rgb(65.177917%, 66.778564%, 81.248474%)" offset="0.332031"/><stop stop-opacity="1" stop-color="rgb(64.831543%, 66.430664%, 80.989075%)" offset="0.335938"/><stop stop-opacity="1" stop-color="rgb(64.483643%, 66.08429%, 80.731201%)" offset="0.339844"/><stop stop-opacity="1" stop-color="rgb(64.135742%, 65.736389%, 80.471802%)" offset="0.34375"/><stop stop-opacity="1" stop-color="rgb(63.789368%, 65.388489%, 80.213928%)" offset="0.347656"/><stop stop-opacity="1" stop-color="rgb(63.441467%, 65.042114%, 79.954529%)" offset="0.351562"/><stop stop-opacity="1" stop-color="rgb(63.095093%, 64.694214%, 79.696655%)" offset="0.355469"/><stop stop-opacity="1" stop-color="rgb(62.747192%, 64.347839%, 79.437256%)" offset="0.359375"/><stop stop-opacity="1" stop-color="rgb(62.400818%, 63.999939%, 79.179382%)" offset="0.363281"/><stop stop-opacity="1" stop-color="rgb(62.052917%, 63.653564%, 78.919983%)" offset="0.367188"/><stop stop-opacity="1" stop-color="rgb(61.706543%, 63.305664%, 78.662109%)" offset="0.371094"/><stop stop-opacity="1" stop-color="rgb(61.358643%, 62.95929%, 78.40271%)" offset="0.375"/><stop stop-opacity="1" stop-color="rgb(61.010742%, 62.611389%, 78.144836%)" offset="0.378906"/><stop stop-opacity="1" stop-color="rgb(60.664368%, 62.263489%, 77.885437%)" offset="0.382812"/><stop stop-opacity="1" stop-color="rgb(60.316467%, 61.917114%, 77.627563%)" offset="0.386719"/><stop stop-opacity="1" stop-color="rgb(59.970093%, 61.569214%, 77.368164%)" offset="0.390625"/><stop stop-opacity="1" stop-color="rgb(59.622192%, 61.222839%, 77.108765%)" offset="0.394531"/><stop stop-opacity="1" stop-color="rgb(59.275818%, 60.874939%, 76.850891%)" offset="0.398438"/><stop stop-opacity="1" stop-color="rgb(58.927917%, 60.528564%, 76.591492%)" offset="0.402344"/><stop stop-opacity="1" stop-color="rgb(58.581543%, 60.180664%, 76.333618%)" offset="0.40625"/><stop stop-opacity="1" stop-color="rgb(58.233643%, 59.83429%, 76.074219%)" offset="0.410156"/><stop stop-opacity="1" stop-color="rgb(57.885742%, 59.486389%, 75.816345%)" offset="0.414062"/><stop stop-opacity="1" stop-color="rgb(57.539368%, 59.138489%, 75.556946%)" offset="0.417969"/><stop stop-opacity="1" stop-color="rgb(57.191467%, 58.792114%, 75.299072%)" offset="0.421875"/><stop stop-opacity="1" stop-color="rgb(56.845093%, 58.444214%, 75.039673%)" offset="0.425781"/><stop stop-opacity="1" stop-color="rgb(56.497192%, 58.097839%, 74.781799%)" offset="0.429688"/><stop stop-opacity="1" stop-color="rgb(56.150818%, 57.749939%, 74.5224%)" offset="0.433594"/><stop stop-opacity="1" stop-color="rgb(55.802917%, 57.403564%, 74.264526%)" offset="0.4375"/><stop stop-opacity="1" stop-color="rgb(55.456543%, 57.055664%, 74.005127%)" offset="0.441406"/><stop stop-opacity="1" stop-color="rgb(55.108643%, 56.70929%, 73.747253%)" offset="0.445312"/><stop stop-opacity="1" stop-color="rgb(54.760742%, 56.361389%, 73.487854%)" offset="0.449219"/><stop stop-opacity="1" stop-color="rgb(54.414368%, 56.013489%, 73.22998%)" offset="0.453125"/><stop stop-opacity="1" stop-color="rgb(54.066467%, 55.667114%, 72.970581%)" offset="0.457031"/><stop stop-opacity="1" stop-color="rgb(53.720093%, 55.319214%, 72.711182%)" offset="0.460938"/><stop stop-opacity="1" stop-color="rgb(53.372192%, 54.972839%, 72.453308%)" offset="0.464844"/><stop stop-opacity="1" stop-color="rgb(53.025818%, 54.624939%, 72.193909%)" offset="0.46875"/><stop stop-opacity="1" stop-color="rgb(52.677917%, 54.278564%, 71.936035%)" offset="0.472656"/><stop stop-opacity="1" stop-color="rgb(52.331543%, 53.930664%, 71.676636%)" offset="0.476562"/><stop stop-opacity="1" stop-color="rgb(51.983643%, 53.58429%, 71.418762%)" offset="0.480469"/><stop stop-opacity="1" stop-color="rgb(51.635742%, 53.236389%, 71.159363%)" offset="0.484375"/><stop stop-opacity="1" stop-color="rgb(51.289368%, 52.888489%, 70.901489%)" offset="0.488281"/><stop stop-opacity="1" stop-color="rgb(50.941467%, 52.542114%, 70.64209%)" offset="0.492188"/><stop stop-opacity="1" stop-color="rgb(50.595093%, 52.194214%, 70.384216%)" offset="0.496094"/><stop stop-opacity="1" stop-color="rgb(50.247192%, 51.847839%, 70.124817%)" offset="0.5"/><stop stop-opacity="1" stop-color="rgb(49.900818%, 51.499939%, 69.866943%)" offset="0.503906"/><stop stop-opacity="1" stop-color="rgb(49.552917%, 51.153564%, 69.607544%)" offset="0.507812"/><stop stop-opacity="1" stop-color="rgb(49.206543%, 50.805664%, 69.34967%)" offset="0.511719"/><stop stop-opacity="1" stop-color="rgb(48.858643%, 50.45929%, 69.090271%)" offset="0.515625"/><stop stop-opacity="1" stop-color="rgb(48.510742%, 50.111389%, 68.832397%)" offset="0.519531"/><stop stop-opacity="1" stop-color="rgb(48.164368%, 49.763489%, 68.572998%)" offset="0.523438"/><stop stop-opacity="1" stop-color="rgb(47.816467%, 49.417114%, 68.313599%)" offset="0.527344"/><stop stop-opacity="1" stop-color="rgb(47.470093%, 49.069214%, 68.055725%)" offset="0.53125"/><stop stop-opacity="1" stop-color="rgb(47.122192%, 48.722839%, 67.796326%)" offset="0.535156"/><stop stop-opacity="1" stop-color="rgb(46.775818%, 48.374939%, 67.538452%)" offset="0.539062"/><stop stop-opacity="1" stop-color="rgb(46.427917%, 48.028564%, 67.279053%)" offset="0.542969"/><stop stop-opacity="1" stop-color="rgb(46.081543%, 47.680664%, 67.021179%)" offset="0.546875"/><stop stop-opacity="1" stop-color="rgb(45.733643%, 47.33429%, 66.76178%)" offset="0.550781"/><stop stop-opacity="1" stop-color="rgb(45.385742%, 46.986389%, 66.503906%)" offset="0.554688"/><stop stop-opacity="1" stop-color="rgb(45.039368%, 46.638489%, 66.244507%)" offset="0.558594"/><stop stop-opacity="1" stop-color="rgb(44.691467%, 46.292114%, 65.986633%)" offset="0.5625"/><stop stop-opacity="1" stop-color="rgb(44.345093%, 45.944214%, 65.727234%)" offset="0.566406"/><stop stop-opacity="1" stop-color="rgb(43.997192%, 45.597839%, 65.46936%)" offset="0.570312"/><stop stop-opacity="1" stop-color="rgb(43.650818%, 45.249939%, 65.209961%)" offset="0.574219"/><stop stop-opacity="1" stop-color="rgb(43.302917%, 44.903564%, 64.952087%)" offset="0.578125"/><stop stop-opacity="1" stop-color="rgb(42.956543%, 44.555664%, 64.692688%)" offset="0.582031"/><stop stop-opacity="1" stop-color="rgb(42.608643%, 44.20929%, 64.434814%)" offset="0.585938"/><stop stop-opacity="1" stop-color="rgb(42.260742%, 43.861389%, 64.175415%)" offset="0.589844"/><stop stop-opacity="1" stop-color="rgb(41.914368%, 43.513489%, 63.916016%)" offset="0.59375"/><stop stop-opacity="1" stop-color="rgb(41.566467%, 43.167114%, 63.658142%)" offset="0.597656"/><stop stop-opacity="1" stop-color="rgb(41.220093%, 42.819214%, 63.398743%)" offset="0.601562"/><stop stop-opacity="1" stop-color="rgb(40.872192%, 42.472839%, 63.140869%)" offset="0.605469"/><stop stop-opacity="1" stop-color="rgb(40.525818%, 42.124939%, 62.88147%)" offset="0.609375"/><stop stop-opacity="1" stop-color="rgb(40.177917%, 41.778564%, 62.623596%)" offset="0.613281"/><stop stop-opacity="1" stop-color="rgb(39.831543%, 41.430664%, 62.364197%)" offset="0.617188"/><stop stop-opacity="1" stop-color="rgb(39.483643%, 41.08429%, 62.106323%)" offset="0.621094"/><stop stop-opacity="1" stop-color="rgb(39.135742%, 40.736389%, 61.846924%)" offset="0.625"/><stop stop-opacity="1" stop-color="rgb(38.789368%, 40.388489%, 61.58905%)" offset="0.628906"/><stop stop-opacity="1" stop-color="rgb(38.441467%, 40.042114%, 61.329651%)" offset="0.632812"/><stop stop-opacity="1" stop-color="rgb(38.095093%, 39.694214%, 61.071777%)" offset="0.636719"/><stop stop-opacity="1" stop-color="rgb(37.747192%, 39.347839%, 60.812378%)" offset="0.640625"/><stop stop-opacity="1" stop-color="rgb(37.400818%, 38.999939%, 60.554504%)" offset="0.644531"/><stop stop-opacity="1" stop-color="rgb(37.052917%, 38.653564%, 60.295105%)" offset="0.648438"/><stop stop-opacity="1" stop-color="rgb(36.706543%, 38.305664%, 60.037231%)" offset="0.652344"/><stop stop-opacity="1" stop-color="rgb(36.358643%, 37.95929%, 59.777832%)" offset="0.65625"/><stop stop-opacity="1" stop-color="rgb(36.010742%, 37.611389%, 59.518433%)" offset="0.660156"/><stop stop-opacity="1" stop-color="rgb(35.664368%, 37.263489%, 59.260559%)" offset="0.664062"/><stop stop-opacity="1" stop-color="rgb(35.316467%, 36.917114%, 59.00116%)" offset="0.667969"/><stop stop-opacity="1" stop-color="rgb(34.970093%, 36.569214%, 58.743286%)" offset="0.671875"/><stop stop-opacity="1" stop-color="rgb(34.622192%, 36.222839%, 58.483887%)" offset="0.675781"/><stop stop-opacity="1" stop-color="rgb(34.275818%, 35.874939%, 58.226013%)" offset="0.679688"/><stop stop-opacity="1" stop-color="rgb(33.927917%, 35.528564%, 57.966614%)" offset="0.683594"/><stop stop-opacity="1" stop-color="rgb(33.581543%, 35.180664%, 57.70874%)" offset="0.6875"/><stop stop-opacity="1" stop-color="rgb(33.233643%, 34.83429%, 57.449341%)" offset="0.691406"/><stop stop-opacity="1" stop-color="rgb(32.885742%, 34.486389%, 57.191467%)" offset="0.695312"/><stop stop-opacity="1" stop-color="rgb(32.539368%, 34.138489%, 56.932068%)" offset="0.699219"/><stop stop-opacity="1" stop-color="rgb(32.191467%, 33.792114%, 56.674194%)" offset="0.703125"/><stop stop-opacity="1" stop-color="rgb(31.845093%, 33.444214%, 56.414795%)" offset="0.707031"/><stop stop-opacity="1" stop-color="rgb(31.497192%, 33.097839%, 56.156921%)" offset="0.710938"/><stop stop-opacity="1" stop-color="rgb(31.150818%, 32.749939%, 55.897522%)" offset="0.714844"/><stop stop-opacity="1" stop-color="rgb(30.802917%, 32.403564%, 55.639648%)" offset="0.71875"/><stop stop-opacity="1" stop-color="rgb(30.456543%, 32.055664%, 55.380249%)" offset="0.722656"/><stop stop-opacity="1" stop-color="rgb(30.108643%, 31.70929%, 55.122375%)" offset="0.726562"/><stop stop-opacity="1" stop-color="rgb(29.760742%, 31.361389%, 54.862976%)" offset="0.730469"/><stop stop-opacity="1" stop-color="rgb(29.414368%, 31.013489%, 54.603577%)" offset="0.734375"/><stop stop-opacity="1" stop-color="rgb(29.066467%, 30.667114%, 54.345703%)" offset="0.738281"/><stop stop-opacity="1" stop-color="rgb(28.720093%, 30.319214%, 54.086304%)" offset="0.742188"/><stop stop-opacity="1" stop-color="rgb(28.372192%, 29.972839%, 53.82843%)" offset="0.746094"/><stop stop-opacity="1" stop-color="rgb(28.199768%, 29.798889%, 53.69873%)" offset="1"/></radialGradient></defs><g clip-path="url(#14d79f5a05)"><g clip-path="url(#8a8affb7f2)"><g clip-path="url(#661a41122d)"><path fill="url(#6fc02d5122)" d="M 2.101562 196.148438 L 2.101562 614.371094 L 808.296875 614.371094 L 808.296875 196.148438 Z M 2.101562 196.148438 " fill-rule="nonzero"/></g></g></g><path fill="#777bb3" d="M 405.199219 599.160156 C 619.125 599.160156 792.550781 512.421875 792.550781 405.421875 C 792.550781 298.425781 619.125 211.6875 405.199219 211.6875 C 191.269531 211.6875 17.847656 298.425781 17.847656 405.421875 C 17.847656 512.421875 191.269531 599.160156 405.199219 599.160156 " fill-opacity="1" fill-rule="nonzero"/><path fill="#000000" d="M 221.101562 429.4375 C 238.691406 429.4375 251.824219 426.238281 260.132812 419.925781 C 268.351562 413.683594 274.027344 402.859375 277.003906 387.761719 C 279.777344 373.652344 278.722656 363.800781 273.863281 358.484375 C 268.894531 353.054688 258.15625 350.300781 241.945312 350.300781 L 213.835938 350.300781 L 198.25 429.441406 L 221.101562 429.441406 Z M 129.160156 526.929688 C 127.855469 526.929688 126.617188 526.355469 125.789062 525.359375 C 125.371094 524.859375 125.085938 524.300781 124.925781 523.675781 C 124.761719 523.050781 124.746094 522.421875 124.871094 521.789062 L 166.171875 312.066406 C 166.269531 311.574219 166.445312 311.113281 166.707031 310.683594 C 166.964844 310.253906 167.292969 309.878906 167.683594 309.5625 C 168.074219 309.242188 168.507812 309 168.988281 308.828125 C 169.464844 308.660156 169.957031 308.574219 170.464844 308.574219 L 259.480469 308.574219 C 287.453125 308.574219 308.277344 316.058594 321.367188 330.859375 C 334.523438 345.722656 338.585938 366.503906 333.441406 392.617188 C 331.347656 403.257812 327.746094 413.136719 322.742188 421.988281 C 317.726562 430.84375 311.101562 439.039062 303.042969 446.347656 C 293.398438 455.257812 282.480469 461.71875 270.625 465.519531 C 258.957031 469.269531 243.972656 471.175781 226.085938 471.175781 L 190.042969 471.175781 L 179.75 523.4375 C 179.652344 523.929688 179.472656 524.390625 179.214844 524.820312 C 178.957031 525.253906 178.628906 525.628906 178.238281 525.945312 C 177.847656 526.265625 177.414062 526.507812 176.933594 526.679688 C 176.457031 526.847656 175.964844 526.933594 175.457031 526.933594 L 129.152344 526.933594 Z M 129.160156 526.929688 " fill-opacity="1" fill-rule="nonzero"/><path fill="#ffffff" d="M 217.441406 354.613281 L 241.945312 354.613281 C 261.511719 354.613281 268.3125 358.851562 270.621094 361.378906 C 274.453125 365.570312 275.175781 374.410156 272.714844 386.941406 C 269.945312 400.972656 264.816406 410.917969 257.464844 416.503906 C 249.941406 422.222656 237.703125 425.121094 221.105469 425.121094 L 203.566406 425.121094 L 217.449219 354.613281 Z M 259.476562 304.253906 L 170.464844 304.253906 C 169.960938 304.253906 169.460938 304.296875 168.964844 304.382812 C 168.46875 304.464844 167.984375 304.59375 167.511719 304.761719 C 167.035156 304.929688 166.582031 305.136719 166.140625 305.382812 C 165.703125 305.628906 165.292969 305.910156 164.902344 306.226562 C 164.515625 306.542969 164.15625 306.886719 163.828125 307.265625 C 163.5 307.644531 163.207031 308.046875 162.949219 308.472656 C 162.691406 308.898438 162.472656 309.34375 162.292969 309.808594 C 162.113281 310.273438 161.976562 310.75 161.878906 311.238281 L 120.582031 520.976562 C 120.457031 521.601562 120.40625 522.230469 120.421875 522.867188 C 120.441406 523.503906 120.53125 524.128906 120.6875 524.746094 C 120.847656 525.363281 121.074219 525.957031 121.363281 526.523438 C 121.65625 527.09375 122.007812 527.621094 122.417969 528.113281 C 122.828125 528.605469 123.289062 529.046875 123.796875 529.4375 C 124.304688 529.828125 124.851562 530.15625 125.4375 530.429688 C 126.019531 530.699219 126.625 530.90625 127.253906 531.046875 C 127.882812 531.183594 128.519531 531.253906 129.167969 531.253906 L 175.457031 531.253906 C 175.960938 531.253906 176.460938 531.210938 176.957031 531.125 C 177.453125 531.042969 177.9375 530.914062 178.414062 530.746094 C 178.886719 530.578125 179.34375 530.371094 179.78125 530.125 C 180.21875 529.878906 180.632812 529.597656 181.019531 529.28125 C 181.410156 528.96875 181.769531 528.621094 182.097656 528.242188 C 182.425781 527.867188 182.71875 527.464844 182.976562 527.035156 C 183.234375 526.609375 183.449219 526.164062 183.628906 525.699219 C 183.808594 525.234375 183.949219 524.757812 184.042969 524.269531 L 193.648438 475.496094 L 226.089844 475.496094 C 244.433594 475.496094 259.875 473.523438 271.984375 469.628906 C 284.4375 465.636719 295.894531 458.867188 306.035156 449.507812 C 314.421875 441.894531 321.34375 433.347656 326.5625 424.101562 C 331.78125 414.855469 335.558594 404.539062 337.742188 393.449219 C 343.160156 365.960938 338.757812 343.949219 324.664062 328.027344 C 310.710938 312.261719 288.777344 304.265625 259.484375 304.265625 M 192.953125 433.769531 L 221.113281 433.769531 C 239.773438 433.769531 253.675781 430.300781 262.808594 423.359375 C 271.941406 416.417969 278.105469 404.832031 281.308594 388.597656 C 284.371094 373.011719 282.976562 362.015625 277.125 355.605469 C 271.269531 349.195312 259.539062 345.992188 241.957031 345.992188 L 210.242188 345.992188 L 192.957031 433.765625 M 259.488281 312.898438 C 286.265625 312.898438 305.800781 319.832031 318.078125 333.703125 C 330.359375 347.574219 334.054688 366.941406 329.15625 391.800781 C 327.140625 402.042969 323.730469 411.40625 318.929688 419.886719 C 314.125 428.371094 307.84375 436.136719 300.089844 443.175781 C 290.84375 451.714844 280.574219 457.796875 269.277344 461.421875 C 257.976562 465.054688 243.585938 466.863281 226.09375 466.863281 L 186.441406 466.863281 L 175.460938 522.621094 L 129.171875 522.621094 L 170.476562 312.914062 L 259.492188 312.914062 " fill-opacity="1" fill-rule="nonzero"/><path fill="#000000" d="M 439.578125 471.167969 C 438.269531 471.167969 437.03125 470.589844 436.203125 469.597656 C 435.375 468.601562 435.035156 467.292969 435.285156 466.027344 L 453.554688 373.230469 C 455.292969 364.40625 454.863281 358.074219 452.347656 355.394531 C 450.808594 353.761719 446.183594 351.015625 432.507812 351.015625 L 399.410156 351.015625 L 376.441406 467.671875 C 376.34375 468.164062 376.164062 468.625 375.90625 469.054688 C 375.644531 469.484375 375.320312 469.859375 374.929688 470.179688 C 374.535156 470.5 374.101562 470.742188 373.625 470.910156 C 373.148438 471.082031 372.652344 471.164062 372.144531 471.164062 L 326.21875 471.164062 C 325.898438 471.164062 325.578125 471.128906 325.265625 471.0625 C 324.949219 470.992188 324.648438 470.890625 324.355469 470.753906 C 324.0625 470.617188 323.789062 470.453125 323.535156 470.257812 C 323.28125 470.0625 323.050781 469.839844 322.84375 469.59375 C 322.640625 469.347656 322.464844 469.085938 322.320312 468.800781 C 322.171875 468.515625 322.0625 468.21875 321.980469 467.910156 C 321.902344 467.601562 321.859375 467.289062 321.847656 466.972656 C 321.839844 466.652344 321.867188 466.339844 321.925781 466.027344 L 363.226562 256.304688 C 363.324219 255.8125 363.503906 255.351562 363.761719 254.921875 C 364.023438 254.492188 364.347656 254.117188 364.738281 253.796875 C 365.132812 253.480469 365.566406 253.234375 366.042969 253.066406 C 366.519531 252.894531 367.015625 252.8125 367.523438 252.8125 L 413.449219 252.8125 C 413.769531 252.8125 414.089844 252.847656 414.402344 252.917969 C 414.71875 252.984375 415.023438 253.089844 415.3125 253.222656 C 415.605469 253.359375 415.878906 253.527344 416.132812 253.722656 C 416.386719 253.917969 416.617188 254.136719 416.824219 254.382812 C 417.027344 254.628906 417.203125 254.894531 417.347656 255.175781 C 417.496094 255.460938 417.605469 255.757812 417.6875 256.066406 C 417.765625 256.375 417.8125 256.6875 417.820312 257.003906 C 417.828125 257.324219 417.804688 257.640625 417.742188 257.953125 L 407.773438 308.570312 L 443.382812 308.570312 C 470.507812 308.570312 488.898438 313.289062 499.613281 323 C 510.550781 332.90625 513.941406 348.742188 509.742188 370.082031 L 490.527344 467.675781 C 490.429688 468.167969 490.253906 468.628906 489.992188 469.058594 C 489.734375 469.488281 489.40625 469.863281 489.015625 470.183594 C 488.625 470.5 488.191406 470.746094 487.710938 470.914062 C 487.234375 471.082031 486.742188 471.167969 486.234375 471.167969 Z M 439.578125 471.167969 " fill-opacity="1" fill-rule="nonzero"/><path fill="#ffffff" d="M 413.449219 248.496094 L 367.523438 248.496094 C 367.019531 248.496094 366.519531 248.539062 366.023438 248.621094 C 365.527344 248.707031 365.042969 248.835938 364.570312 249.003906 C 364.09375 249.171875 363.636719 249.378906 363.199219 249.625 C 362.761719 249.871094 362.347656 250.148438 361.960938 250.464844 C 361.570312 250.78125 361.214844 251.128906 360.886719 251.507812 C 360.558594 251.882812 360.265625 252.285156 360.007812 252.714844 C 359.75 253.140625 359.53125 253.585938 359.351562 254.050781 C 359.171875 254.515625 359.035156 254.992188 358.9375 255.480469 L 317.636719 465.203125 C 317.511719 465.828125 317.460938 466.457031 317.480469 467.09375 C 317.496094 467.730469 317.585938 468.359375 317.746094 468.976562 C 317.902344 469.59375 318.128906 470.183594 318.421875 470.753906 C 318.710938 471.320312 319.0625 471.851562 319.472656 472.339844 C 319.882812 472.832031 320.34375 473.273438 320.851562 473.664062 C 321.363281 474.054688 321.910156 474.386719 322.492188 474.65625 C 323.074219 474.929688 323.683594 475.132812 324.3125 475.273438 C 324.941406 475.414062 325.578125 475.480469 326.222656 475.480469 L 372.148438 475.480469 C 372.652344 475.480469 373.152344 475.441406 373.648438 475.355469 C 374.144531 475.269531 374.632812 475.144531 375.105469 474.976562 C 375.578125 474.804688 376.035156 474.601562 376.472656 474.355469 C 376.910156 474.109375 377.324219 473.828125 377.714844 473.511719 C 378.101562 473.195312 378.460938 472.847656 378.789062 472.46875 C 379.117188 472.09375 379.410156 471.691406 379.667969 471.261719 C 379.925781 470.835938 380.144531 470.390625 380.324219 469.925781 C 380.503906 469.460938 380.640625 468.984375 380.738281 468.496094 L 403.019531 355.332031 L 432.511719 355.332031 C 446.164062 355.332031 449.027344 358.210938 449.144531 358.335938 C 449.972656 359.210938 451.0625 363.285156 449.265625 372.40625 L 430.996094 465.203125 C 430.871094 465.828125 430.820312 466.457031 430.839844 467.09375 C 430.855469 467.730469 430.945312 468.359375 431.105469 468.976562 C 431.261719 469.59375 431.488281 470.183594 431.78125 470.753906 C 432.070312 471.320312 432.421875 471.851562 432.832031 472.339844 C 433.242188 472.832031 433.703125 473.273438 434.210938 473.664062 C 434.722656 474.054688 435.269531 474.386719 435.851562 474.65625 C 436.433594 474.929688 437.042969 475.132812 437.671875 475.273438 C 438.300781 475.414062 438.9375 475.480469 439.582031 475.480469 L 486.238281 475.480469 C 486.742188 475.480469 487.242188 475.441406 487.738281 475.355469 C 488.234375 475.269531 488.71875 475.144531 489.195312 474.976562 C 489.667969 474.804688 490.125 474.601562 490.5625 474.355469 C 491 474.109375 491.414062 473.828125 491.800781 473.511719 C 492.191406 473.195312 492.550781 472.847656 492.878906 472.46875 C 493.207031 472.09375 493.5 471.691406 493.757812 471.261719 C 494.015625 470.835938 494.230469 470.390625 494.410156 469.925781 C 494.589844 469.460938 494.730469 468.984375 494.824219 468.496094 L 514.042969 370.902344 C 518.550781 347.996094 514.691406 330.808594 502.582031 319.820312 C 491.023438 309.34375 471.660156 304.25 443.386719 304.25 L 413.085938 304.25 L 422.042969 258.773438 C 422.164062 258.148438 422.21875 257.519531 422.199219 256.882812 C 422.179688 256.246094 422.09375 255.617188 421.933594 255.003906 C 421.773438 254.386719 421.550781 253.792969 421.257812 253.222656 C 420.964844 252.65625 420.617188 252.125 420.207031 251.636719 C 419.792969 251.144531 419.335938 250.703125 418.824219 250.3125 C 418.316406 249.921875 417.769531 249.589844 417.1875 249.320312 C 416.601562 249.046875 415.996094 248.839844 415.367188 248.703125 C 414.738281 248.5625 414.101562 248.492188 413.453125 248.492188 M 413.453125 257.128906 L 402.476562 312.886719 L 443.390625 312.886719 C 469.132812 312.886719 486.890625 317.320312 496.664062 326.175781 C 506.4375 335.035156 509.363281 349.402344 505.457031 369.257812 L 486.242188 466.847656 L 439.585938 466.847656 L 457.855469 374.054688 C 459.933594 363.5 459.171875 356.300781 455.5625 352.460938 C 451.949219 348.621094 444.265625 346.699219 432.519531 346.699219 L 395.804688 346.699219 L 372.148438 466.847656 L 326.222656 466.847656 L 367.523438 257.128906 L 413.449219 257.128906 " fill-opacity="1" fill-rule="nonzero"/><path fill="#000000" d="M 582.414062 429.4375 C 600.003906 429.4375 613.136719 426.238281 621.445312 419.925781 C 629.664062 413.683594 635.339844 402.863281 638.316406 387.761719 C 641.09375 373.652344 640.035156 363.800781 635.175781 358.484375 C 630.207031 353.054688 619.46875 350.300781 603.257812 350.300781 L 575.148438 350.300781 L 559.5625 429.441406 L 582.414062 429.441406 Z M 490.472656 526.925781 C 489.167969 526.925781 487.925781 526.347656 487.097656 525.355469 C 486.683594 524.855469 486.394531 524.296875 486.234375 523.671875 C 486.070312 523.046875 486.054688 522.417969 486.179688 521.785156 L 527.480469 312.0625 C 527.578125 311.570312 527.753906 311.109375 528.015625 310.679688 C 528.273438 310.25 528.601562 309.875 528.992188 309.554688 C 529.382812 309.238281 529.816406 308.992188 530.296875 308.824219 C 530.773438 308.65625 531.265625 308.570312 531.773438 308.570312 L 620.789062 308.570312 C 648.765625 308.570312 669.585938 316.054688 682.675781 330.855469 C 695.832031 345.71875 699.894531 366.496094 694.75 392.613281 C 692.65625 403.253906 689.054688 413.132812 684.046875 421.980469 C 679.03125 430.839844 672.40625 439.035156 664.351562 446.34375 C 654.703125 455.253906 643.785156 461.714844 631.929688 465.515625 C 620.261719 469.265625 605.277344 471.167969 587.394531 471.167969 L 551.324219 471.167969 L 541.035156 523.433594 C 540.9375 523.925781 540.757812 524.386719 540.5 524.816406 C 540.238281 525.25 539.914062 525.625 539.523438 525.941406 C 539.128906 526.261719 538.695312 526.503906 538.21875 526.675781 C 537.738281 526.84375 537.246094 526.929688 536.738281 526.929688 L 490.449219 526.929688 Z M 490.472656 526.925781 " fill-opacity="1" fill-rule="nonzero"/><path fill="#ffffff" d="M 578.753906 354.613281 L 603.261719 354.613281 C 622.824219 354.613281 629.625 358.851562 631.933594 361.378906 C 635.769531 365.570312 636.488281 374.410156 634.027344 386.941406 C 631.257812 400.972656 626.128906 410.917969 618.777344 416.503906 C 611.253906 422.222656 599.015625 425.121094 582.417969 425.121094 L 564.875 425.121094 L 578.757812 354.613281 Z M 620.789062 304.253906 L 531.773438 304.253906 C 531.269531 304.253906 530.769531 304.296875 530.273438 304.382812 C 529.777344 304.464844 529.292969 304.59375 528.816406 304.761719 C 528.34375 304.929688 527.886719 305.136719 527.449219 305.382812 C 527.011719 305.628906 526.597656 305.910156 526.210938 306.226562 C 525.820312 306.542969 525.460938 306.886719 525.132812 307.265625 C 524.804688 307.644531 524.511719 308.046875 524.257812 308.472656 C 524 308.898438 523.78125 309.34375 523.601562 309.808594 C 523.421875 310.273438 523.28125 310.75 523.1875 311.238281 L 481.882812 520.976562 C 481.761719 521.601562 481.707031 522.230469 481.726562 522.867188 C 481.746094 523.503906 481.832031 524.128906 481.992188 524.746094 C 482.152344 525.363281 482.375 525.957031 482.667969 526.523438 C 482.957031 527.09375 483.308594 527.621094 483.71875 528.113281 C 484.128906 528.605469 484.589844 529.046875 485.097656 529.4375 C 485.609375 529.828125 486.15625 530.15625 486.738281 530.429688 C 487.320312 530.699219 487.929688 530.90625 488.558594 531.046875 C 489.1875 531.183594 489.824219 531.253906 490.46875 531.253906 L 536.757812 531.253906 C 537.261719 531.253906 537.761719 531.210938 538.257812 531.125 C 538.753906 531.042969 539.242188 530.914062 539.714844 530.746094 C 540.1875 530.578125 540.644531 530.371094 541.082031 530.125 C 541.519531 529.878906 541.933594 529.597656 542.324219 529.28125 C 542.710938 528.96875 543.070312 528.621094 543.398438 528.242188 C 543.726562 527.867188 544.019531 527.464844 544.277344 527.035156 C 544.535156 526.609375 544.753906 526.164062 544.933594 525.699219 C 545.113281 525.234375 545.25 524.757812 545.347656 524.269531 L 554.949219 475.496094 L 587.390625 475.496094 C 605.734375 475.496094 621.175781 473.523438 633.285156 469.628906 C 645.738281 465.636719 657.199219 458.867188 667.339844 449.503906 C 675.726562 441.894531 682.628906 433.347656 687.863281 424.101562 C 693.097656 414.855469 696.859375 404.539062 699.042969 393.449219 C 704.460938 365.960938 700.058594 343.945312 685.964844 328.027344 C 672.011719 312.261719 650.082031 304.265625 620.785156 304.265625 M 554.257812 433.769531 L 582.414062 433.769531 C 601.074219 433.769531 614.976562 430.300781 624.109375 423.359375 C 633.242188 416.417969 639.40625 404.832031 642.609375 388.597656 C 645.671875 373.011719 644.277344 362.015625 638.425781 355.605469 C 632.570312 349.195312 620.839844 345.992188 603.257812 345.992188 L 571.542969 345.992188 L 554.257812 433.765625 M 620.789062 312.898438 C 647.566406 312.898438 667.101562 319.832031 679.378906 333.703125 C 691.660156 347.574219 695.355469 366.941406 690.457031 391.800781 C 688.441406 402.042969 685.03125 411.40625 680.230469 419.886719 C 675.425781 428.371094 669.144531 436.136719 661.390625 443.175781 C 652.144531 451.714844 641.878906 457.796875 630.578125 461.421875 C 619.277344 465.054688 604.886719 466.863281 587.394531 466.863281 L 547.742188 466.863281 L 536.761719 522.621094 L 490.472656 522.621094 L 531.773438 312.898438 L 620.789062 312.898438 " fill-opacity="1" fill-rule="nonzero"/></svg>